<svg xmlns="http://www.w3.org/2000/svg" xmlns:xlink="http://www.w3.org/1999/xlink" preserveAspectRatio="xMidYMid" width="1417" height="169" viewBox="0 0 1417 169">
  <defs>
    <style>
      .cls-1 {
        fill: #e0e0e0;
      }

      .cls-1, .cls-2, .cls-3, .cls-7, .cls-8 {
        fill-rule: evenodd;
      }

      .cls-2 {
        fill: #d0d0d0;
      }

      .cls-3 {
        fill: #ababab;
      }

      .cls-4 {
        fill: #a3a3a3;
      }

      .cls-5 {
        fill: #b0b0b0;
      }

      .cls-6, .cls-7 {
        stroke: #8f8f8f;
        fill: none;
      }

      .cls-6 {
        stroke-width: 3px;
      }

      .cls-7 {
        stroke-width: 2px;
      }

      .cls-8 {
        fill: #8f8f8f;
      }
    </style>
  </defs>
  <g>
    <path d="M-16.000,150.000 L83.000,117.000 L165.000,137.000 L216.000,119.000 L293.000,156.000 L399.000,162.000 L476.000,155.000 L623.000,144.000 L747.000,134.000 L889.000,102.000 L974.968,122.172 L1057.000,99.000 L1183.000,122.000 L1245.000,100.000 L1333.994,128.605 L1448.000,97.000 L1448.000,142.000 L-12.000,166.000 L-16.000,150.000 Z" class="cls-1"/>
    <path d="M519.005,123.006 C521.592,123.093 521.288,121.659 521.284,120.082 C521.262,111.974 521.232,103.865 521.278,95.757 C521.286,94.485 520.511,92.818 522.795,92.280 C523.502,92.113 523.135,90.772 523.139,89.969 C523.162,85.394 523.142,80.821 523.154,76.247 C523.157,75.263 522.808,74.119 524.460,73.949 C525.923,73.798 525.401,72.540 525.409,71.719 C525.457,67.042 525.295,62.358 525.500,57.688 C525.596,55.489 524.175,52.739 527.237,51.202 C527.520,51.060 527.383,50.027 527.385,49.408 C527.395,46.497 527.277,43.581 527.403,40.676 C527.976,27.487 528.615,14.299 529.243,1.112 C529.256,0.841 529.426,0.578 529.638,-0.007 C531.943,4.844 531.772,9.883 531.706,14.618 C531.552,25.583 533.364,36.456 532.816,47.417 C532.660,50.528 532.251,53.769 532.899,56.748 C534.437,63.818 532.342,71.208 534.116,77.901 C535.964,84.869 534.609,91.618 535.366,98.410 C535.458,99.236 535.325,100.229 536.600,100.092 C538.742,99.862 538.639,101.254 538.635,102.673 C538.616,108.598 538.683,114.524 538.579,120.448 C538.546,122.290 538.990,122.979 540.997,122.984 " class="cls-2"/>
    <path d="M4.000,158.000 L-16.017,122.442 L232.294,156.977 L366.433,153.440 L390.793,152.798 L399.673,147.000 L423.827,151.138 L435.734,146.885 L459.000,151.000 L522.504,122.657 L564.000,116.000 L667.000,110.173 L709.857,98.227 L790.000,126.000 L893.000,129.000 L970.000,102.000 L1038.000,117.000 L1143.000,100.000 L1266.000,121.000 L1348.000,93.000 L1456.000,116.000 L1463.000,166.000 L4.000,166.000 L4.000,158.000 Z" class="cls-2"/>
    <path d="M708.190,56.634 L708.190,51.209 L707.388,51.209 L707.388,46.389 L706.525,46.389 L706.525,41.639 L705.721,41.639 L705.721,37.925 L705.150,37.925 L705.150,35.837 L704.458,35.837 L704.458,34.219 L703.974,34.219 L703.974,32.943 L703.689,32.943 C703.668,32.796 703.570,32.587 703.428,32.465 L703.428,27.997 L702.969,27.997 L702.969,32.465 C702.829,32.588 702.729,32.797 702.707,32.943 L702.428,32.943 L702.428,34.218 L701.936,34.218 L701.936,35.836 L701.251,35.836 L701.251,37.923 L700.672,37.923 L700.672,41.639 L699.872,41.639 L699.872,46.389 L699.014,46.389 L699.014,51.209 L698.207,51.209 L698.207,56.634 L697.402,56.634 L697.402,63.133 L681.600,63.133 L681.600,56.634 L680.794,56.634 L680.794,51.209 L679.987,51.209 L679.987,46.389 L679.132,46.389 L679.132,41.639 L678.326,41.639 L678.326,37.925 L677.755,37.925 L677.755,35.837 L677.065,35.837 L677.065,34.219 L676.578,34.219 L676.578,32.943 L676.294,32.943 C676.272,32.796 676.172,32.587 676.033,32.465 L676.033,27.997 L675.573,27.997 L675.573,32.465 C675.435,32.588 675.335,32.797 675.310,32.943 L675.029,32.943 L675.029,34.218 L674.542,34.218 L674.542,35.836 L673.851,35.836 L673.851,37.923 L673.278,37.923 L673.278,41.639 L672.475,41.639 L672.475,46.389 L671.613,46.389 L671.613,51.209 L670.810,51.209 L670.810,56.634 L670.007,56.634 L670.007,113.002 L708.993,101.002 L708.993,56.634 L708.190,56.634 ZM697.400,67.081 L697.400,73.306 L690.869,67.081 L697.400,67.081 ZM681.600,67.081 L687.962,67.081 L681.600,73.520 L681.600,67.081 ZM681.600,75.761 L689.417,67.639 L697.401,75.666 L697.401,90.497 L681.600,90.497 L681.600,75.761 ZM681.559,95.759 L681.559,92.836 L685.217,92.836 L685.217,95.759 L681.559,95.759 ZM687.489,95.759 L687.489,92.836 L691.611,92.836 L691.611,95.759 L687.489,95.759 ZM693.813,95.759 L693.813,92.836 L697.474,92.836 L697.474,95.759 L693.813,95.759 Z" class="cls-2"/>
    <path d="M857.989,142.616 L857.999,153.946 L836.832,153.966 L831.836,153.971 L826.703,153.976 L801.009,154.000 L801.000,142.669 L807.913,142.663 L807.913,142.441 L807.909,138.887 L804.558,138.891 L804.702,133.013 L820.895,132.998 L820.894,132.783 L820.895,132.783 L820.892,130.689 L804.756,130.705 L804.797,129.085 C809.941,129.019 815.415,128.726 820.964,128.733 C820.964,127.964 820.973,127.221 820.972,126.454 C815.349,126.458 809.895,126.863 804.855,126.851 L804.893,125.181 C809.795,125.048 815.337,124.479 821.033,124.490 C821.031,123.731 821.051,123.007 821.050,122.245 C815.190,122.253 809.663,123.042 804.947,123.029 L804.991,121.301 C809.656,121.098 815.267,120.257 821.103,120.281 C821.102,119.521 821.131,118.822 821.129,118.062 C815.045,118.071 809.450,119.236 805.044,119.232 L805.093,117.442 C809.530,117.162 815.204,116.061 821.171,116.093 C821.169,115.338 821.209,114.661 821.208,113.907 C814.912,113.916 809.256,115.436 805.146,115.461 L805.201,113.606 C809.417,113.239 815.151,111.890 821.237,111.935 C821.236,111.184 821.285,110.529 821.285,109.776 C814.794,109.784 809.084,111.642 805.250,111.716 L805.308,109.789 C809.325,109.334 815.110,107.746 821.306,107.802 C821.306,107.051 821.364,106.422 821.364,105.670 C814.699,105.682 808.944,107.846 805.362,107.990 L805.425,105.989 C809.255,105.432 815.078,103.629 821.372,103.692 C821.371,102.944 821.441,102.339 821.440,101.594 C814.628,101.602 808.839,104.043 805.476,104.283 L805.545,102.202 C809.213,101.537 815.057,99.535 821.439,99.606 C821.437,98.865 821.515,98.282 821.514,97.537 C814.582,97.549 808.772,100.227 805.601,100.593 C805.625,99.872 805.651,99.149 805.678,98.429 C809.193,97.646 815.061,95.470 821.503,95.549 C821.502,94.808 821.594,94.245 821.594,93.507 C814.572,93.519 808.761,96.394 805.734,96.913 C805.761,96.160 805.788,95.413 805.818,94.661 C809.210,93.753 815.084,91.426 821.570,91.512 C821.570,90.777 821.669,90.241 821.668,89.501 C814.594,89.517 808.790,92.539 805.874,93.232 C805.903,92.454 805.932,91.676 805.967,90.896 C809.259,89.859 815.125,87.409 821.640,87.500 C821.640,86.768 821.746,86.253 821.746,85.521 C814.654,85.533 808.869,88.659 806.025,89.543 C806.061,88.741 806.094,87.939 806.131,87.136 C809.344,85.960 815.187,83.414 821.701,83.512 C821.700,82.783 821.820,82.295 821.820,81.562 C814.747,81.578 809.007,84.753 806.192,85.841 C806.228,85.015 806.267,84.193 806.309,83.370 C809.465,82.058 815.270,79.443 821.769,79.548 C821.769,78.821 821.894,78.355 821.893,77.630 C814.870,77.641 809.185,80.830 806.371,82.120 C806.410,81.278 806.455,80.437 806.496,79.595 C809.622,78.147 815.375,75.497 821.835,75.606 C821.834,74.885 821.971,74.439 821.971,73.719 C815.021,73.732 809.398,76.890 806.562,78.373 C806.609,77.518 806.655,76.661 806.703,75.810 C809.816,74.232 815.504,71.573 821.897,71.690 C821.897,70.970 822.050,70.549 822.050,69.831 C815.199,69.844 809.654,72.939 806.770,74.601 C806.822,73.736 806.875,72.872 806.927,72.008 C810.041,70.313 815.651,67.676 821.963,67.790 C821.963,67.079 822.121,66.684 822.120,65.964 C815.395,65.978 809.937,68.985 807.002,70.799 C807.057,69.931 807.110,69.062 807.166,68.192 C810.292,66.392 815.815,63.797 822.027,63.920 C822.026,63.207 822.196,62.833 822.194,62.120 C815.610,62.132 810.239,65.033 807.250,66.972 C807.307,66.102 807.368,65.232 807.429,64.364 C810.576,62.473 815.997,59.945 822.088,60.070 C822.088,59.358 822.267,59.008 822.267,58.301 C815.835,58.313 810.566,61.085 807.517,63.125 C807.582,62.254 807.646,61.387 807.713,60.518 C810.882,58.561 816.195,56.114 822.158,56.239 C822.157,55.535 822.345,55.207 822.344,54.499 C816.077,54.512 810.915,57.148 807.810,59.256 C807.875,58.392 807.944,57.525 808.015,56.660 C811.211,54.650 816.400,52.303 822.219,52.431 C822.218,51.727 822.418,51.425 822.418,50.724 C816.323,50.735 811.273,53.223 808.123,55.374 C808.193,54.512 808.267,53.651 808.344,52.790 C811.562,50.754 816.622,48.515 822.283,48.643 C822.283,47.946 822.493,47.664 822.493,46.967 C816.581,46.978 811.652,49.316 808.458,51.478 C808.656,49.310 808.861,47.144 809.080,44.974 C815.859,38.201 817.909,38.576 825.835,38.568 L825.850,54.935 L825.917,54.935 L830.303,54.930 L830.605,54.930 L830.948,46.800 C829.794,46.406 828.964,45.310 828.963,44.021 C828.961,42.747 829.769,41.661 830.899,41.256 L831.340,30.747 L831.713,21.775 L831.874,18.000 L832.427,30.746 L832.886,41.253 C834.016,41.657 834.828,42.743 834.828,44.016 C834.830,45.305 834.000,46.402 832.846,46.799 L833.206,54.928 L833.617,54.928 L836.514,54.925 L836.522,61.639 L833.835,61.642 L833.395,61.642 L833.906,84.724 L833.923,84.724 L834.584,84.723 L834.584,84.724 L837.830,84.721 L837.830,84.720 L838.030,84.720 L838.020,73.811 C844.230,73.805 844.840,74.136 849.758,77.566 C850.020,79.262 850.265,80.953 850.489,82.650 C848.685,81.616 846.399,80.617 843.054,80.214 L843.054,81.758 C846.902,82.277 849.172,83.345 850.691,84.218 C850.773,84.854 850.850,85.491 850.926,86.129 C848.981,85.115 846.568,84.094 843.043,83.702 C843.043,84.233 843.045,84.768 843.045,85.301 C847.130,85.824 849.493,86.940 851.114,87.773 C851.182,88.385 851.249,88.998 851.312,89.607 C849.222,88.632 846.692,87.627 843.041,87.249 C843.042,87.802 843.042,88.355 843.042,88.909 C847.284,89.418 849.739,90.544 851.486,91.317 C851.546,91.909 851.603,92.503 851.659,93.095 C849.417,92.183 846.770,91.215 843.035,90.860 C843.035,91.434 843.037,92.008 843.037,92.580 C847.371,93.063 849.922,94.162 851.818,94.864 C851.870,95.446 851.920,96.028 851.966,96.613 C849.577,95.772 846.822,94.864 843.032,94.539 C843.033,95.132 843.033,95.723 843.034,96.317 C847.402,96.763 850.053,97.807 852.111,98.429 C852.153,99.006 852.198,99.585 852.244,100.163 C849.708,99.409 846.849,98.578 843.033,98.285 C843.033,98.897 843.034,99.509 843.034,100.121 C847.388,100.527 850.145,101.488 852.374,102.033 C852.413,102.611 852.453,103.188 852.490,103.769 C849.815,103.103 846.853,102.361 843.032,102.105 C843.033,102.736 843.033,103.368 843.034,104.001 C847.344,104.358 850.208,105.219 852.607,105.689 C852.644,106.269 852.678,106.849 852.713,107.431 C849.901,106.860 846.845,106.217 843.035,105.996 C843.037,106.648 843.037,107.300 843.038,107.952 C847.277,108.260 850.248,109.007 852.822,109.404 C852.854,109.990 852.883,110.577 852.915,111.161 C849.972,110.688 846.822,110.149 843.042,109.966 C843.042,110.637 843.043,111.309 843.045,111.981 C847.191,112.237 850.269,112.862 853.019,113.191 C853.047,113.782 853.075,114.373 853.101,114.967 C850.029,114.588 846.793,114.159 843.050,114.017 C843.050,114.708 843.051,115.400 843.053,116.088 C847.098,116.291 850.283,116.794 853.198,117.053 L853.283,118.852 C850.084,118.573 846.762,118.255 843.062,118.154 C843.062,118.863 843.062,119.572 843.063,120.284 C847.002,120.430 850.287,120.807 853.377,120.994 L853.458,122.824 C850.137,122.645 846.732,122.436 843.071,122.375 C843.071,123.105 843.073,123.834 843.074,124.567 C846.903,124.662 850.292,124.902 853.551,125.020 L853.635,126.887 C850.189,126.808 846.700,126.712 843.084,126.691 C843.084,127.440 843.086,128.191 843.086,128.941 C846.806,128.977 850.301,129.089 853.736,129.141 L853.823,131.045 L843.100,131.099 L843.149,135.675 L853.930,135.618 C854.020,137.447 854.114,139.276 854.218,141.109 L851.073,141.112 L851.075,142.621 L857.989,142.616 ZM825.923,132.896 L825.926,136.348 L827.346,136.347 L827.569,136.347 L828.965,106.970 L825.966,106.985 L825.966,106.973 L825.899,106.973 L825.923,132.896 ZM825.893,100.259 L825.960,100.259 L825.960,100.271 L828.657,100.269 L828.658,100.258 L829.647,100.257 L829.825,91.442 L825.952,91.446 L825.884,91.446 L825.893,100.259 ZM830.061,61.644 L825.924,61.648 L825.856,61.648 L825.879,84.731 L825.945,84.731 L829.223,84.729 L829.223,84.729 L829.959,84.729 L830.428,61.644 L830.061,61.644 ZM838.036,91.434 L834.802,91.437 L834.802,91.438 L834.054,91.438 L834.250,100.251 L835.090,100.251 L835.090,100.255 L837.770,100.268 L837.770,100.249 L838.045,100.249 L838.036,91.434 ZM838.050,106.986 L834.944,106.965 L835.998,128.239 L836.208,134.724 L836.399,138.604 L838.081,138.603 L838.078,135.520 L838.121,135.519 L838.050,106.986 Z" class="cls-3"/>
    <path d="M1070.327,156.428 L1070.188,155.815 L1069.768,147.885 C1069.768,147.885 1070.030,146.354 1070.870,145.225 C1071.707,144.086 1070.551,122.853 1070.551,122.853 C1070.551,122.853 1071.369,120.649 1071.996,120.240 C1072.628,119.823 1070.759,106.116 1071.070,105.907 C1071.386,105.708 1073.434,104.600 1074.595,103.990 C1075.748,103.367 1077.929,97.050 1077.929,97.050 C1077.929,97.050 1078.630,96.191 1079.672,95.472 C1080.724,94.743 1081.673,92.578 1082.088,91.552 C1082.512,90.510 1081.668,89.376 1081.668,89.376 L1083.248,85.860 L1082.611,84.928 L1076.323,82.036 L1073.700,85.858 C1073.700,85.858 1071.292,84.512 1070.033,83.070 C1068.768,81.617 1069.084,78.104 1067.721,75.831 C1067.096,74.810 1065.805,74.102 1064.555,73.631 C1064.103,72.364 1063.419,70.443 1063.214,69.634 C1062.898,68.398 1062.994,66.018 1063.318,65.288 C1063.522,64.817 1063.322,63.536 1063.162,62.720 C1063.308,62.388 1063.456,62.426 1063.513,62.064 C1065.540,61.835 1069.541,60.861 1069.373,60.816 C1069.210,60.771 1065.395,60.317 1063.426,60.143 C1063.352,59.806 1063.421,59.896 1063.271,59.592 L1068.613,56.300 L1062.236,57.977 C1061.969,57.711 1062.063,57.504 1061.732,57.285 C1062.253,56.567 1064.644,51.833 1064.399,52.030 C1063.483,52.753 1060.233,56.111 1059.779,56.485 C1059.352,56.348 1058.920,56.256 1058.464,56.198 L1057.332,49.018 L1056.480,56.194 C1055.672,56.286 1055.769,56.234 1055.107,56.565 L1055.107,56.565 C1055.107,56.565 1050.276,52.077 1050.013,51.868 C1049.750,51.661 1052.931,57.332 1052.931,57.332 L1052.455,58.110 L1048.516,57.081 C1048.455,57.368 1048.384,57.671 1048.314,57.998 L1051.669,59.453 L1051.565,60.071 C1051.565,60.071 1049.917,59.981 1048.736,60.088 C1048.867,60.561 1049.021,61.008 1049.204,61.422 C1050.109,61.529 1051.516,61.777 1051.516,61.777 C1051.516,61.777 1051.596,61.902 1051.715,62.088 C1051.900,62.378 1052.173,62.811 1052.358,63.130 C1052.462,65.162 1052.904,65.966 1052.904,65.966 L1052.605,68.962 C1052.605,68.962 1051.722,68.755 1051.205,68.236 C1050.674,67.721 1049.315,66.175 1049.207,64.741 C1049.120,63.505 1048.824,61.945 1048.399,61.419 C1048.266,61.168 1047.643,59.275 1047.544,58.426 C1047.481,58.015 1047.433,57.614 1047.423,57.252 C1047.418,57.083 1047.416,56.941 1047.411,56.786 L1047.404,56.784 C1047.393,56.595 1047.388,56.405 1047.378,56.201 C1047.271,52.999 1044.965,47.625 1044.965,46.488 C1044.965,45.352 1044.861,42.875 1044.965,41.013 C1045.061,39.155 1043.490,37.500 1043.490,37.500 C1043.490,37.500 1043.698,36.987 1044.229,36.364 C1044.439,36.115 1044.497,35.820 1044.489,35.556 C1045.855,35.268 1046.776,34.772 1046.776,34.194 C1046.776,34.004 1046.675,33.830 1046.497,33.663 L1046.497,32.417 C1046.675,32.255 1046.776,32.073 1046.776,31.883 C1046.776,31.169 1045.365,30.573 1043.445,30.368 C1043.422,29.985 1043.452,29.357 1043.739,29.160 C1044.158,28.889 1044.962,28.304 1044.897,27.237 C1044.818,26.176 1044.858,25.544 1045.104,25.166 C1045.344,24.788 1045.939,24.239 1045.939,24.239 L1043.698,25.201 L1045.780,21.992 C1045.780,21.992 1041.862,23.200 1040.560,24.338 C1039.609,25.161 1039.019,26.152 1039.718,28.228 C1040.008,29.098 1040.345,29.887 1040.845,30.354 C1038.830,30.533 1037.345,31.151 1037.345,31.887 C1037.345,32.063 1037.433,32.235 1037.590,32.387 L1037.590,33.698 C1037.433,33.852 1037.345,34.020 1037.345,34.196 C1037.345,34.705 1038.058,35.151 1039.166,35.447 C1039.110,36.295 1039.819,37.080 1039.819,37.084 C1039.819,37.089 1039.819,37.089 1039.819,37.089 C1039.805,37.106 1039.295,37.827 1039.192,39.668 C1039.088,41.529 1040.241,42.875 1040.241,42.875 C1040.241,42.875 1040.347,43.498 1040.347,44.629 C1040.347,45.765 1041.391,47.834 1041.391,47.834 C1041.391,47.834 1041.713,49.591 1041.500,52.792 C1041.285,55.994 1042.964,61.680 1042.964,61.680 C1042.964,61.680 1041.603,64.060 1040.454,66.741 C1039.298,69.425 1042.759,73.151 1042.759,73.151 C1042.759,73.151 1044.962,79.252 1045.165,81.727 C1045.377,84.208 1046.200,103.503 1045.681,107.640 C1045.148,111.776 1044.631,124.946 1044.735,126.596 C1044.836,128.248 1046.009,135.197 1045.486,140.670 C1044.960,146.150 1045.058,155.187 1045.058,155.187 L1045.020,156.423 L1034.995,156.423 L1034.995,161.008 L1084.004,161.008 L1084.004,156.423 L1070.327,156.423 L1070.327,156.428 ZM1076.610,83.213 L1081.910,85.688 L1080.799,88.173 C1080.799,88.173 1079.531,88.033 1078.832,88.582 C1078.138,89.129 1077.025,91.058 1077.025,91.609 C1077.025,92.160 1077.304,93.399 1077.304,93.399 L1073.246,100.432 L1072.401,99.741 L1071.715,90.111 L1076.610,83.213 ZM1058.351,64.641 C1058.316,64.917 1058.182,65.053 1057.863,65.053 C1057.549,65.053 1057.204,65.164 1057.204,65.164 L1057.641,65.814 L1057.641,66.185 C1057.641,66.185 1057.549,66.230 1057.233,66.230 C1056.915,66.230 1056.813,66.467 1056.743,66.641 C1056.661,66.810 1057.160,66.674 1057.443,66.674 C1057.714,66.674 1057.827,67.055 1057.827,67.055 C1057.827,67.055 1057.827,67.810 1057.827,68.122 C1057.827,68.425 1057.612,68.467 1057.233,68.425 C1056.844,68.398 1055.693,68.329 1055.307,67.640 C1054.924,66.948 1054.854,65.261 1055.025,64.955 C1055.208,64.641 1056.563,64.057 1056.813,63.993 C1057.052,63.913 1057.132,63.232 1057.052,62.884 C1056.975,62.538 1055.832,62.298 1055.832,62.298 C1055.243,61.748 1057.863,60.574 1058.213,60.649 C1058.558,60.711 1060.098,62.126 1060.098,62.126 C1060.098,62.126 1058.630,62.400 1058.418,62.644 C1058.213,62.884 1058.387,64.371 1058.351,64.641 ZM1059.714,66.230 C1059.400,66.330 1058.597,64.299 1059.082,64.299 C1059.082,64.299 1060.375,64.334 1060.410,64.643 C1060.443,64.955 1060.033,66.125 1059.714,66.230 ZM1059.052,60.063 C1058.771,60.028 1057.716,59.649 1057.134,59.988 C1056.533,60.342 1054.791,61.615 1054.163,62.062 C1053.531,62.509 1053.348,60.850 1053.348,60.850 C1054.050,59.684 1055.903,58.752 1056.664,58.688 C1057.446,58.614 1058.561,58.752 1058.946,58.959 C1059.330,59.163 1060.240,58.921 1060.937,59.480 C1061.633,60.024 1062.023,61.267 1061.920,61.579 C1061.809,61.890 1059.328,60.093 1059.052,60.063 Z" class="cls-3"/>
    <path d="M785.993,149.003 L774.083,148.862 L773.196,148.855 C773.084,139.904 761.337,124.624 751.704,124.507 C751.699,124.507 751.694,124.507 751.692,124.507 C751.670,124.505 751.649,124.504 751.630,124.507 C751.617,124.504 751.601,124.505 751.587,124.507 C741.994,124.444 734.129,131.519 733.808,140.436 L733.218,140.428 L721.010,140.285 C721.010,140.285 727.249,130.891 733.252,119.094 C733.266,119.066 733.280,119.044 733.294,119.016 L733.365,113.090 L736.165,113.123 C736.183,113.082 736.205,113.036 736.225,112.994 C739.369,106.214 742.118,99.062 743.415,92.691 L743.027,92.685 C742.946,92.683 742.866,92.653 742.792,92.597 C742.263,92.203 741.876,90.678 741.876,90.678 C741.885,90.103 742.416,89.645 743.062,89.654 L743.964,89.665 C743.973,89.612 743.983,89.555 743.991,89.507 C745.321,81.692 750.209,51.507 750.315,28.714 L750.162,28.714 C750.124,28.712 750.088,28.696 750.051,28.670 C749.461,28.231 749.035,24.526 749.035,24.526 C749.042,24.077 749.375,23.694 749.839,23.557 C749.758,23.414 749.707,23.253 749.712,23.083 L749.720,22.359 C749.726,21.787 750.258,21.332 750.909,21.340 L751.283,21.345 C751.225,21.235 751.190,21.114 751.191,20.987 C751.197,20.581 751.575,20.255 752.034,20.261 L752.389,20.265 L752.444,15.525 C752.446,15.336 752.576,15.172 752.756,15.105 L752.816,10.007 L752.932,10.009 L752.974,10.009 L753.052,10.009 L753.258,10.014 L753.198,15.111 C753.380,15.183 753.503,15.347 753.498,15.538 L753.444,20.277 L753.794,20.282 C754.261,20.287 754.628,20.623 754.621,21.027 C754.621,21.155 754.584,21.275 754.521,21.382 L754.899,21.386 C755.546,21.393 756.067,21.862 756.060,22.434 L756.051,23.158 C756.048,23.326 756.003,23.488 755.918,23.627 C756.375,23.777 756.697,24.167 756.692,24.616 C756.692,24.616 756.187,28.310 755.584,28.736 C755.549,28.760 755.512,28.777 755.474,28.776 L755.319,28.774 C754.889,51.560 759.065,81.852 760.211,89.696 C760.220,89.749 760.229,89.805 760.235,89.856 L761.230,89.866 C761.883,89.875 762.403,90.347 762.394,90.919 C762.394,90.919 761.975,92.437 761.435,92.814 C761.356,92.871 761.278,92.899 761.195,92.899 L760.712,92.893 C761.858,99.295 764.440,106.512 767.424,113.357 C767.441,113.406 767.459,113.448 767.479,113.494 L770.202,113.526 L770.135,119.283 C770.173,119.366 770.214,119.445 770.255,119.529 C775.981,131.461 785.993,149.003 785.993,149.003 ZM755.551,99.283 L752.001,99.245 L751.928,99.243 L751.884,99.242 L748.335,99.201 C748.144,101.869 745.567,111.318 745.077,113.098 C745.026,113.286 744.995,113.388 744.995,113.388 L751.718,113.469 L751.759,113.469 L751.834,113.469 L758.645,113.549 C758.611,113.460 758.576,113.363 758.540,113.256 C757.415,109.961 755.551,99.283 755.551,99.283 Z" class="cls-3"/>
    <rect x="345" y="111" width="1" height="26" class="cls-4"/>
    <rect x="341" y="113" width="1" height="26" class="cls-5"/>
    <rect x="337" y="115" width="1" height="26" class="cls-5"/>
    <rect x="333" y="116" width="1" height="26" class="cls-5"/>
    <rect x="329" y="118" width="1" height="23" class="cls-5"/>
    <rect x="325" y="119" width="1" height="20" class="cls-5"/>
    <rect x="321" y="121" width="1" height="16" class="cls-5"/>
    <rect x="317" y="122" width="1" height="16" class="cls-5"/>
    <rect x="313" y="124" width="1" height="16" class="cls-5"/>
    <rect x="309" y="126" width="1" height="16" class="cls-5"/>
    <rect x="305" y="127" width="1" height="16" class="cls-5"/>
    <rect x="301" y="128" width="1" height="16" class="cls-5"/>
    <rect x="297" y="129" width="1" height="14" class="cls-5"/>
    <rect x="293" y="130" width="1" height="10" class="cls-5"/>
    <rect x="289" y="131" width="1" height="12" class="cls-5"/>
    <rect x="285" y="132" width="1" height="11" class="cls-5"/>
    <rect x="281" y="133" width="1" height="8" class="cls-6"/>
    <path d="M352.000,110.000 C352.000,110.000 322.659,122.218 313.000,126.000 C297.191,132.190 266.000,139.000 266.000,139.000 " class="cls-7"/>
    <path d="M352.000,122.000 C352.000,122.000 312.502,141.493 276.000,143.000 " class="cls-7"/>
    <path d="M1445.000,166.000 L1445.000,134.000 L1324.018,115.784 L1224.000,146.000 C1224.000,146.000 1149.000,126.000 1144.000,128.000 C1139.000,130.000 1064.000,121.000 1064.000,121.000 L924.000,155.000 L704.979,127.252 L644.121,151.666 L594.026,129.171 L466.662,163.923 L421.638,148.057 L390.907,157.495 L361.477,157.219 L48.000,159.000 L49.000,167.000 L1445.000,166.000 Z" class="cls-3"/>
    <path d="M647.092,109.362 L652.001,104.474 C652.001,104.474 648.373,102.522 642.877,103.515 C637.378,104.500 634.765,108.071 634.765,108.071 L631.346,105.824 L635.762,97.916 C635.762,97.916 631.495,97.047 626.062,97.234 C620.636,97.417 615.137,101.132 615.137,101.132 C615.137,101.132 613.521,96.799 606.147,90.922 C598.785,85.050 589.921,83.996 589.921,83.996 C591.667,86.905 594.995,98.359 594.995,98.359 C594.995,98.359 592.603,95.532 588.439,93.583 C585.101,92.018 580.162,91.603 580.162,91.603 L582.671,101.195 C582.671,101.195 580.954,98.506 576.273,97.048 C572.922,96.004 567.744,96.987 567.744,96.987 L573.242,107.877 L556.999,120.003 L660.066,120.003 L650.066,112.529 L647.219,111.034 L647.092,109.362 ZM575.116,109.669 L568.713,97.698 L571.100,97.599 L577.580,109.881 L575.116,109.669 ZM585.676,111.785 C585.676,111.785 584.891,107.618 583.885,103.022 C582.884,98.431 580.873,92.338 580.873,92.338 L581.879,92.555 C581.879,92.555 584.135,95.974 585.618,101.762 C586.964,107.000 587.184,111.056 587.184,111.056 L585.676,111.785 ZM598.698,111.949 C598.698,111.949 597.509,105.055 595.946,98.644 C594.375,92.231 591.481,85.287 591.481,85.287 L593.384,85.717 C593.384,85.717 596.776,91.082 598.563,98.346 C600.351,105.611 600.647,113.506 600.647,113.506 L598.698,111.949 ZM625.213,111.937 L633.179,98.179 L634.878,98.258 L627.302,111.965 L625.213,111.937 ZM627.879,112.141 L629.739,108.902 L630.998,112.327 L627.879,112.141 ZM641.258,114.309 L639.303,114.031 C639.303,114.031 643.070,110.385 645.487,108.162 C647.918,105.932 650.065,104.281 650.065,104.281 L651.495,104.567 C651.495,104.567 647.805,107.999 645.868,109.765 C643.920,111.524 641.258,114.309 641.258,114.309 Z" class="cls-2"/>
    <path d="M-23.000,125.000 L71.049,148.326 L162.590,118.774 L314.199,160.929 L359.172,150.755 L410.185,161.175 L451.580,152.935 L471.843,158.886 L538.780,128.980 L580.000,157.000 L656.000,137.000 L727.000,155.000 L864.000,141.000 L1051.000,152.999 L1199.000,127.000 L1297.000,146.000 L1446.000,118.000 L1446.000,169.000 L-13.000,169.000 L-23.000,125.000 Z" class="cls-8"/>
    <path d="M503.533,142.892 C503.533,144.963 503.533,152.977 503.533,155.037 C502.829,155.037 502.201,155.037 501.497,155.037 C501.497,153.005 501.497,144.991 501.497,142.927 C500.839,142.927 500.255,142.927 499.594,142.927 C499.594,144.937 499.594,152.951 499.594,155.024 C498.875,155.024 498.231,155.024 497.534,155.024 C497.534,152.997 497.534,145.000 497.534,142.889 C497.221,142.889 496.959,142.888 496.696,142.889 C488.188,142.935 479.679,142.977 471.171,143.027 C464.143,143.069 457.115,143.118 450.087,143.164 C442.990,143.210 435.893,143.251 428.797,143.304 C423.978,143.340 419.159,143.394 414.340,143.439 C414.163,143.441 413.986,143.440 413.758,143.440 C413.758,150.647 413.758,157.796 413.758,165.000 C412.336,165.000 410.963,165.000 409.514,165.000 C409.514,157.841 409.514,150.675 409.514,143.538 C407.204,143.538 404.971,143.538 402.688,143.538 C402.688,150.739 402.688,157.842 402.688,165.000 C401.266,165.000 399.893,165.000 398.444,165.000 C398.444,157.887 398.444,150.767 398.444,143.555 C381.840,143.667 365.312,143.778 348.663,143.891 C348.791,136.732 348.918,129.652 349.045,122.598 C348.604,122.505 348.302,122.442 348.000,122.379 C348.000,122.057 348.000,121.736 348.000,121.415 C348.800,121.207 349.001,120.708 348.985,119.878 C348.924,116.736 348.968,113.592 348.946,110.449 C348.944,110.210 348.744,109.969 348.626,109.735 C348.517,109.517 348.290,109.299 348.306,109.096 C348.323,108.882 348.521,108.592 348.718,108.496 C352.660,106.574 356.677,104.795 360.549,102.737 C364.512,100.631 368.371,98.315 372.210,95.981 C375.226,94.147 378.187,92.213 381.090,90.202 C384.676,87.717 388.186,85.120 391.710,82.544 C393.862,80.971 395.984,79.357 398.095,77.730 C398.297,77.574 398.421,77.186 398.413,76.910 C398.399,76.386 398.559,76.013 398.943,75.660 C399.493,75.153 399.986,74.583 400.542,74.000 C401.253,74.970 402.346,75.497 402.777,76.654 C404.966,76.654 407.194,76.654 409.381,76.654 C409.821,75.505 410.906,74.972 411.616,74.012 C412.267,74.685 412.889,75.316 413.494,75.962 C413.607,76.083 413.745,76.284 413.718,76.418 C413.392,78.073 414.333,79.266 415.154,80.501 C417.129,83.471 419.062,86.471 421.100,89.396 C423.742,93.189 426.441,96.941 429.168,100.672 C430.826,102.939 432.559,105.153 434.302,107.355 C435.507,108.876 436.756,110.364 438.041,111.816 C440.294,114.363 442.542,116.918 444.883,119.382 C446.931,121.538 449.077,123.601 451.232,125.650 C452.589,126.941 454.016,128.161 455.455,129.360 C457.937,131.428 460.563,133.299 463.328,134.966 C465.728,136.413 468.219,137.673 470.904,138.487 C471.685,138.724 472.518,138.845 473.334,138.888 C475.122,138.984 476.939,138.824 478.699,139.079 C481.943,139.549 484.423,138.007 486.812,136.233 C489.792,134.019 491.857,131.016 493.610,127.774 C495.129,124.964 496.328,122.021 497.279,118.974 C497.424,118.509 497.433,118.003 497.521,117.518 C497.559,117.306 497.576,117.040 497.709,116.903 C498.686,115.889 498.479,115.986 499.295,116.814 C499.799,117.325 501.232,117.285 501.773,116.801 C502.035,116.568 502.550,116.200 502.650,116.279 C503.064,116.607 503.582,116.895 503.540,117.617 C503.475,118.761 503.419,119.922 503.545,121.055 C503.788,123.245 504.098,125.432 504.496,127.599 C504.939,130.008 505.673,132.341 506.769,134.541 C507.792,136.593 509.178,138.359 511.010,139.738 C511.264,139.929 511.666,139.918 512.000,140.001 C512.000,140.965 512.000,141.929 512.000,142.892 C509.203,142.892 506.406,142.892 503.533,142.892 ZM366.485,136.100 C367.590,136.100 368.645,136.100 369.716,136.100 C369.716,127.890 369.716,119.731 369.716,111.418 C368.660,112.047 367.693,112.594 366.765,113.200 C366.582,113.319 366.460,113.669 366.459,113.913 C366.443,121.113 366.446,128.313 366.448,135.512 C366.448,135.710 366.472,135.908 366.485,136.100 ZM362.346,135.329 C362.346,135.547 362.346,135.765 362.346,136.062 C363.440,136.062 364.429,136.062 365.458,136.062 C365.458,128.755 365.458,121.390 365.458,113.928 C364.584,114.419 363.792,114.915 362.954,115.312 C362.497,115.528 362.334,115.772 362.335,116.280 C362.352,122.630 362.346,128.980 362.346,135.329 ZM349.911,135.101 C349.911,135.299 349.936,135.497 349.948,135.686 C351.009,135.686 352.019,135.686 353.044,135.686 C353.044,130.615 353.044,125.595 353.044,120.488 C352.152,120.905 351.337,121.322 350.492,121.666 C350.044,121.850 349.896,122.091 349.898,122.579 C349.918,126.753 349.909,130.927 349.911,135.101 ZM353.024,107.998 C352.028,108.453 351.094,108.864 350.178,109.315 C350.043,109.382 349.922,109.632 349.921,109.798 C349.907,113.328 349.910,116.858 349.910,120.478 C350.920,120.016 351.843,119.624 352.729,119.161 C352.911,119.066 353.045,118.702 353.046,118.461 C353.067,115.205 353.061,111.949 353.059,108.693 C353.059,108.495 353.040,108.297 353.024,107.998 ZM354.010,135.044 C354.010,135.266 354.010,135.488 354.010,135.792 C355.101,135.792 356.106,135.792 357.134,135.792 C357.134,130.018 357.134,124.250 357.134,118.402 C356.244,118.847 355.416,119.287 354.564,119.675 C354.141,119.868 353.995,120.112 353.997,120.591 C354.018,125.408 354.010,130.226 354.010,135.044 ZM357.160,110.330 C357.160,108.917 357.160,107.503 357.160,106.023 C356.170,106.489 355.235,106.907 354.326,107.376 C354.164,107.460 354.024,107.759 354.023,107.959 C354.005,111.440 354.010,114.920 354.010,118.527 C354.979,118.038 355.846,117.574 356.737,117.165 C357.086,117.006 357.172,116.807 357.169,116.445 C357.152,114.407 357.160,112.368 357.160,110.330 ZM358.246,135.236 C358.246,135.416 358.246,135.597 358.246,135.835 C359.333,135.904 360.334,135.968 361.356,136.033 C361.356,129.381 361.356,122.826 361.356,116.191 C360.466,116.668 359.659,117.149 358.809,117.536 C358.359,117.740 358.235,117.992 358.237,118.465 C358.252,124.055 358.246,129.645 358.246,135.236 ZM361.397,104.944 C361.397,104.589 361.397,104.235 361.397,103.829 C360.387,104.348 359.450,104.815 358.531,105.316 C358.392,105.392 358.259,105.626 358.258,105.788 C358.243,109.266 358.247,112.745 358.247,116.346 C359.107,115.885 359.868,115.413 360.679,115.063 C361.284,114.802 361.417,114.426 361.410,113.810 C361.381,110.855 361.397,107.900 361.397,104.944 ZM365.497,101.589 C364.622,102.053 363.841,102.480 363.048,102.882 C362.491,103.164 362.250,103.552 362.330,104.211 C362.406,104.844 362.346,105.492 362.346,106.134 C362.346,108.763 362.346,111.392 362.346,114.145 C363.376,113.562 364.331,113.041 365.258,112.474 C365.403,112.385 365.486,112.087 365.487,111.886 C365.501,108.496 365.497,105.106 365.497,101.589 ZM369.734,104.479 C369.734,102.722 369.734,100.966 369.734,99.117 C368.661,99.736 367.656,100.300 366.672,100.901 C366.540,100.982 366.456,101.247 366.456,101.428 C366.443,104.839 366.446,108.250 366.446,111.823 C367.472,111.199 368.371,110.622 369.301,110.103 C369.659,109.903 369.744,109.665 369.740,109.288 C369.725,107.685 369.734,106.082 369.734,104.479 ZM370.683,135.523 C370.683,135.765 370.683,136.008 370.683,136.233 C371.790,136.233 372.800,136.233 373.821,136.233 C373.821,127.118 373.821,118.059 373.821,108.869 C372.893,109.444 372.071,109.977 371.225,110.466 C370.802,110.711 370.669,111.010 370.670,111.506 C370.688,119.511 370.683,127.517 370.683,135.523 ZM373.834,100.626 C373.834,99.326 373.834,98.027 373.834,96.606 C372.910,97.176 372.093,97.712 371.243,98.190 C370.840,98.418 370.668,98.673 370.672,99.153 C370.695,101.744 370.683,104.337 370.683,106.929 C370.683,107.657 370.683,108.384 370.683,109.267 C371.667,108.631 372.494,108.061 373.358,107.555 C373.728,107.338 373.843,107.089 373.840,106.681 C373.826,104.663 373.834,102.644 373.834,100.626 ZM374.783,135.516 C374.783,135.762 374.783,136.007 374.783,136.339 C375.868,136.339 376.872,136.339 377.905,136.339 C377.905,126.312 377.905,116.277 377.905,106.157 C376.995,106.759 376.174,107.337 375.316,107.853 C374.888,108.110 374.770,108.410 374.771,108.899 C374.787,117.771 374.783,126.644 374.783,135.516 ZM377.934,98.012 C377.934,96.712 377.934,95.413 377.934,93.977 C376.960,94.602 376.069,95.143 375.217,95.741 C375.007,95.888 374.806,96.217 374.802,96.465 C374.768,98.390 374.783,100.316 374.783,102.242 C374.783,103.659 374.783,105.076 374.783,106.634 C375.784,105.971 376.647,105.381 377.530,104.824 C377.857,104.618 377.945,104.368 377.942,103.995 C377.925,102.001 377.934,100.006 377.934,98.012 ZM379.020,135.666 C379.020,135.908 379.020,136.150 379.020,136.383 C380.105,136.456 381.090,136.522 382.101,136.589 C382.101,125.399 382.101,114.328 382.101,103.194 C381.201,103.824 380.398,104.432 379.547,104.963 C379.120,105.230 379.008,105.528 379.008,106.013 C379.023,115.897 379.020,125.782 379.020,135.666 ZM382.170,91.115 C381.193,91.779 380.328,92.406 379.421,92.965 C379.092,93.167 379.012,93.376 379.014,93.727 C379.024,96.868 379.019,100.010 379.022,103.151 C379.022,103.316 379.059,103.481 379.087,103.716 C380.066,103.005 380.976,102.357 381.865,101.683 C382.012,101.571 382.157,101.340 382.157,101.164 C382.175,97.863 382.170,94.561 382.170,91.115 ZM383.119,135.725 C383.119,135.990 383.119,136.256 383.119,136.606 C384.214,136.606 385.216,136.606 386.245,136.606 C386.245,124.478 386.245,112.330 386.245,100.102 C385.449,100.688 384.749,101.248 384.004,101.738 C383.342,102.172 383.093,102.686 383.096,103.521 C383.132,114.256 383.119,124.990 383.119,135.725 ZM386.270,88.222 C385.319,88.901 384.472,89.549 383.579,90.122 C383.216,90.356 383.111,90.606 383.114,91.005 C383.126,93.179 383.119,95.354 383.119,97.529 C383.119,98.574 383.119,99.619 383.119,100.756 C384.142,99.996 385.096,99.310 386.017,98.581 C386.174,98.457 386.256,98.153 386.259,97.930 C386.282,96.625 386.270,95.320 386.270,94.016 C386.270,92.123 386.270,90.230 386.270,88.222 ZM387.356,135.861 C387.356,136.127 387.356,136.393 387.356,136.648 C388.459,136.648 389.469,136.648 390.492,136.648 C390.492,123.358 390.492,110.120 390.492,96.832 C390.352,96.880 390.207,96.891 390.112,96.967 C389.374,97.556 388.661,98.178 387.909,98.748 C387.475,99.077 387.340,99.446 387.341,99.998 C387.361,111.952 387.356,123.907 387.356,135.861 ZM390.525,93.460 C390.420,92.884 390.507,92.272 390.507,91.677 C390.507,89.553 390.507,87.429 390.507,85.214 C390.287,85.341 390.130,85.413 389.993,85.513 C389.270,86.040 388.573,86.608 387.822,87.090 C387.461,87.321 387.347,87.567 387.350,87.970 C387.364,89.893 387.356,91.817 387.356,93.741 C387.356,94.947 387.356,96.153 387.356,97.512 C388.013,96.981 388.530,96.485 389.121,96.103 C390.097,95.474 390.761,94.754 390.525,93.460 ZM391.456,135.992 C391.456,136.259 391.456,136.525 391.456,136.813 C392.536,136.813 393.529,136.813 394.580,136.813 C394.580,122.303 394.580,107.866 394.580,93.289 C393.695,94.030 392.934,94.762 392.076,95.351 C391.486,95.756 391.447,96.236 391.448,96.850 C391.459,109.897 391.456,122.945 391.456,135.992 ZM394.535,82.108 C393.600,82.827 392.770,83.514 391.886,84.120 C391.528,84.365 391.445,84.613 391.449,85.008 C391.466,86.773 391.456,88.538 391.456,90.303 C391.456,91.555 391.456,92.807 391.456,94.158 C392.448,93.332 393.350,92.619 394.200,91.849 C394.417,91.653 394.587,91.280 394.590,90.986 C394.619,88.213 394.608,85.439 394.604,82.666 C394.604,82.504 394.566,82.343 394.535,82.108 ZM395.556,136.080 C395.556,136.324 395.556,136.568 395.556,136.883 C396.540,136.926 397.438,136.966 398.380,137.008 C398.380,121.245 398.380,105.603 398.380,89.895 C397.601,90.609 396.923,91.319 396.152,91.905 C395.721,92.233 395.547,92.545 395.547,93.077 C395.558,107.411 395.556,121.745 395.556,136.080 ZM398.434,79.149 C397.542,79.823 396.722,80.401 395.959,81.047 C395.740,81.233 395.583,81.614 395.574,81.910 C395.534,83.283 395.556,84.658 395.556,86.033 C395.556,87.514 395.556,88.995 395.556,90.662 C396.521,89.786 397.374,89.031 398.199,88.246 C398.338,88.113 398.423,87.853 398.424,87.651 C398.438,84.857 398.434,82.063 398.434,79.149 ZM402.691,137.168 C404.999,137.168 407.230,137.168 409.456,137.168 C409.456,133.206 409.456,129.256 409.456,125.318 C407.170,125.318 404.932,125.318 402.691,125.318 C402.691,129.258 402.691,133.147 402.691,137.168 ZM402.700,108.938 C402.700,112.335 402.700,115.676 402.700,119.047 C404.960,119.047 407.183,119.047 409.455,119.047 C409.455,115.634 409.455,112.277 409.455,108.938 C407.166,108.938 404.926,108.938 402.700,108.938 ZM409.450,102.646 C409.450,100.158 409.450,97.719 409.450,95.266 C407.189,95.266 404.982,95.266 402.705,95.266 C402.705,97.765 402.705,100.204 402.705,102.646 C404.986,102.646 407.226,102.646 409.450,102.646 ZM402.709,82.189 C402.709,82.836 402.709,83.429 402.709,84.112 C403.343,83.546 403.907,83.042 404.574,82.448 C403.897,81.987 403.300,82.242 402.709,82.189 ZM409.470,82.173 C408.808,82.173 408.175,82.141 407.548,82.186 C407.170,82.213 406.800,82.362 406.427,82.456 C406.585,82.777 406.699,83.129 406.907,83.413 C407.711,84.511 408.544,85.586 409.470,86.807 C409.470,85.152 409.470,83.697 409.470,82.173 ZM405.313,83.532 C404.468,84.339 403.664,85.103 402.867,85.873 C402.782,85.954 402.675,86.070 402.673,86.171 C402.658,87.122 402.664,88.074 402.664,89.038 C404.971,89.038 407.186,89.038 409.516,89.038 C408.088,87.168 406.716,85.371 405.313,83.532 ZM413.781,137.334 C414.613,137.334 415.395,137.334 416.172,137.334 C416.185,137.212 416.197,137.144 416.197,137.076 C416.199,124.026 416.200,110.977 416.194,97.928 C416.194,97.739 416.143,97.512 416.033,97.368 C415.324,96.443 414.592,95.536 413.781,94.514 C413.781,108.899 413.781,123.124 413.781,137.334 ZM416.149,84.420 C415.387,83.243 414.611,82.076 413.733,80.747 C413.733,84.184 413.760,87.413 413.717,90.641 C413.704,91.670 413.771,92.593 414.549,93.375 C415.108,93.937 415.567,94.599 416.125,95.282 C416.168,95.107 416.196,95.047 416.196,94.987 C416.199,91.597 416.200,88.208 416.198,84.818 C416.198,84.684 416.214,84.521 416.149,84.420 ZM420.293,90.769 C420.293,90.626 420.216,90.469 420.135,90.344 C419.880,89.949 419.607,89.566 419.340,89.179 C418.639,88.161 417.938,87.144 417.150,86.002 C417.150,89.524 417.147,92.872 417.156,96.221 C417.157,96.415 417.193,96.653 417.306,96.795 C418.244,97.975 419.203,99.137 420.156,100.304 C420.204,100.285 420.252,100.266 420.300,100.248 C420.300,97.088 420.302,93.928 420.293,90.769 ZM419.629,101.685 C418.783,100.818 418.060,99.830 417.196,98.789 C417.196,111.786 417.196,124.636 417.196,137.473 C418.254,137.473 419.263,137.473 420.300,137.473 C420.300,137.146 420.300,136.872 420.300,136.598 C420.300,125.727 420.296,114.855 420.309,103.984 C420.311,103.131 420.295,102.369 419.629,101.685 ZM425.532,137.622 C426.626,137.687 427.672,137.749 428.735,137.813 C428.754,137.633 428.771,137.545 428.771,137.457 C428.773,129.228 428.775,120.999 428.765,112.770 C428.765,112.535 428.710,112.240 428.566,112.076 C427.594,110.975 426.590,109.902 425.532,108.749 C425.532,118.443 425.532,128.033 425.532,137.622 ZM421.431,137.581 C422.481,137.581 423.485,137.581 424.509,137.581 C424.518,137.489 424.535,137.400 424.535,137.312 C424.536,127.538 424.538,117.764 424.526,107.990 C424.526,107.769 424.418,107.508 424.277,107.334 C423.369,106.213 422.438,105.111 421.431,103.902 C421.431,115.184 421.431,126.341 421.431,137.581 ZM424.533,96.873 C424.533,96.744 424.516,96.590 424.446,96.491 C423.463,95.105 422.470,93.727 421.386,92.217 C421.386,95.391 421.382,98.415 421.397,101.439 C421.398,101.639 421.507,101.869 421.634,102.032 C422.227,102.795 422.836,103.547 423.457,104.288 C423.774,104.668 424.127,105.017 424.537,105.457 C424.537,102.509 424.538,99.691 424.533,96.873 ZM428.770,102.659 C428.770,102.530 428.755,102.373 428.684,102.276 C427.659,100.877 426.623,99.486 425.487,97.955 C425.487,100.872 425.483,103.598 425.495,106.323 C425.495,106.486 425.572,106.681 425.678,106.806 C426.652,107.955 427.641,109.092 428.626,110.233 C428.675,110.206 428.724,110.179 428.773,110.152 C428.773,107.654 428.775,105.157 428.770,102.659 ZM433.862,137.911 C434.939,137.911 435.977,137.911 437.063,137.911 C437.085,137.786 437.106,137.720 437.106,137.655 C437.109,132.244 437.111,126.832 437.104,121.421 C437.104,121.254 437.062,121.038 436.955,120.927 C435.966,119.896 434.959,118.882 433.862,117.765 C433.862,124.577 433.862,131.229 433.862,137.911 ZM429.769,137.837 C430.818,137.837 431.822,137.837 432.841,137.837 C432.848,137.799 432.870,137.733 432.870,137.666 C432.872,130.833 432.875,123.999 432.864,117.165 C432.863,116.965 432.762,116.722 432.629,116.572 C431.712,115.538 430.775,114.523 429.769,113.420 C429.769,121.606 429.769,129.682 429.769,137.837 ZM432.868,107.894 C432.867,107.747 432.828,107.569 432.741,107.458 C431.772,106.223 430.791,104.999 429.723,103.660 C429.723,105.748 429.747,107.698 429.713,109.647 C429.695,110.659 429.675,111.600 430.535,112.370 C431.346,113.096 432.048,113.946 432.873,114.822 C432.873,112.431 432.876,110.162 432.868,107.894 ZM437.090,112.968 C437.087,112.736 436.876,112.481 436.709,112.282 C435.786,111.180 434.846,110.092 433.823,108.895 C433.823,111.186 433.820,113.340 433.829,115.494 C433.830,115.661 433.874,115.875 433.981,115.987 C434.967,117.019 435.970,118.035 437.108,119.197 C437.108,116.980 437.120,114.974 437.090,112.968 ZM442.335,138.126 C443.378,138.126 444.382,138.126 445.395,138.126 C445.405,138.099 445.434,138.059 445.434,138.018 C445.440,134.991 445.449,131.964 445.434,128.936 C445.434,128.743 445.303,128.495 445.154,128.365 C444.245,127.569 443.314,126.801 442.335,125.978 C442.335,130.046 442.335,134.042 442.335,138.126 ZM438.096,138.047 C439.126,138.047 440.119,138.047 441.161,138.047 C441.183,137.927 441.206,137.862 441.206,137.797 C441.209,133.623 441.215,129.449 441.196,125.276 C441.195,125.043 441.034,124.760 440.862,124.588 C440.107,123.834 439.321,123.111 438.543,122.381 C438.426,122.271 438.286,122.186 438.096,122.044 C438.096,127.445 438.096,132.731 438.096,138.047 ZM441.202,117.647 C441.201,117.548 441.136,117.431 441.067,117.353 C440.107,116.249 439.140,115.151 438.060,113.920 C438.060,116.003 438.057,117.922 438.067,119.841 C438.068,119.984 438.125,120.167 438.223,120.263 C439.167,121.197 440.126,122.115 441.208,123.161 C441.208,121.199 441.210,119.423 441.202,117.647 ZM443.609,120.026 C443.159,119.690 442.799,119.232 442.296,118.727 C442.296,120.381 442.321,121.845 442.284,123.307 C442.269,123.877 442.401,124.302 442.850,124.670 C443.682,125.353 444.481,126.077 445.447,126.918 C445.447,126.001 445.359,125.243 445.464,124.515 C445.738,122.622 445.123,121.160 443.609,120.026 ZM449.673,126.401 C449.671,126.245 449.564,126.058 449.449,125.941 C448.501,124.971 447.540,124.014 446.583,123.054 C446.521,123.096 446.458,123.137 446.396,123.179 C446.396,124.300 446.430,125.422 446.384,126.541 C446.353,127.311 446.407,127.965 447.196,128.369 C447.546,128.549 447.810,128.893 448.128,129.144 C448.607,129.520 449.099,129.880 449.683,130.320 C449.683,128.914 449.691,127.657 449.673,126.401 ZM448.250,130.906 C448.172,130.873 448.125,130.774 448.053,130.718 C447.535,130.318 447.014,129.921 446.452,129.491 C446.452,132.460 446.452,135.326 446.452,138.182 C447.538,138.250 448.568,138.314 449.684,138.384 C449.684,136.834 449.606,135.411 449.706,134.001 C449.803,132.644 449.652,131.505 448.250,130.906 ZM458.997,138.578 C459.377,138.578 459.729,138.578 460.270,138.578 C459.737,138.322 459.380,138.150 458.997,137.966 C458.997,138.228 458.997,138.402 458.997,138.578 ZM450.666,138.385 C451.711,138.385 452.725,138.385 453.783,138.385 C453.783,137.302 453.787,136.208 453.777,135.113 C453.776,134.998 453.724,134.835 453.640,134.776 C452.663,134.096 451.675,133.431 450.666,132.746 C450.666,134.640 450.666,136.462 450.666,138.385 ZM453.774,130.005 C453.771,129.846 453.685,129.642 453.567,129.539 C452.631,128.716 451.678,127.913 450.633,127.020 C450.633,128.071 450.694,128.985 450.615,129.887 C450.541,130.730 450.788,131.307 451.511,131.746 C452.264,132.203 452.970,132.736 453.783,133.296 C453.783,132.104 453.792,131.055 453.774,130.005 ZM458.008,133.237 C458.005,133.108 457.895,132.945 457.786,132.861 C456.800,132.097 455.803,131.347 454.736,130.537 C454.736,131.632 454.718,132.674 454.754,133.714 C454.760,133.887 454.969,134.104 455.140,134.211 C456.044,134.781 456.965,135.322 458.018,135.956 C458.018,134.962 458.028,134.099 458.008,133.237 ZM457.658,137.214 C456.691,136.680 455.748,136.102 454.781,135.533 C454.781,136.524 454.781,137.488 454.781,138.465 C455.865,138.465 456.901,138.465 458.013,138.465 C457.977,137.977 458.202,137.515 457.658,137.214 ZM462.110,135.986 C462.107,135.867 462.035,135.703 461.941,135.642 C460.993,135.025 460.034,134.425 458.970,133.751 C458.970,134.392 459.034,134.927 458.955,135.441 C458.826,136.283 459.167,136.710 459.931,136.994 C460.650,137.261 461.322,137.660 462.118,138.053 C462.118,137.260 462.127,136.623 462.110,135.986 ZM463.206,136.482 C463.206,136.986 463.237,137.446 463.199,137.899 C463.144,138.537 463.467,138.762 464.030,138.764 C465.212,138.769 466.394,138.766 467.738,138.766 C466.136,137.958 464.692,137.230 463.206,136.482 ZM496.006,138.210 C496.006,138.659 496.006,139.108 496.006,139.537 C496.566,139.537 497.029,139.537 497.503,139.537 C497.503,136.664 497.503,133.846 497.503,130.834 C497.149,131.312 496.940,131.688 496.644,131.973 C496.128,132.468 495.975,133.038 495.994,133.740 C496.034,135.229 496.006,136.720 496.006,138.210 ZM493.417,139.482 C493.972,139.482 494.431,139.482 494.905,139.482 C494.905,137.712 494.905,135.952 494.905,134.192 C494.843,134.145 494.781,134.099 494.719,134.052 C494.475,134.348 494.239,134.652 493.983,134.938 C493.809,135.131 493.449,135.293 493.442,135.479 C493.394,136.795 493.417,138.115 493.417,139.482 ZM490.905,139.402 C491.416,139.402 491.923,139.402 492.444,139.402 C492.444,138.372 492.444,137.393 492.444,136.358 C490.955,136.946 490.533,137.809 490.905,139.402 ZM489.802,139.385 C489.802,138.960 489.802,138.527 489.802,137.954 C489.297,138.545 488.468,138.479 488.152,139.272 C488.794,139.316 489.301,139.351 489.802,139.385 ZM489.768,135.317 C489.248,136.018 488.405,136.381 488.150,137.345 C489.756,136.787 489.981,136.507 489.768,135.317 ZM492.395,132.238 C491.703,133.390 490.374,134.097 490.882,135.640 C492.492,134.737 492.631,134.442 492.395,132.238 ZM494.948,128.338 C493.649,129.901 493.041,131.527 493.497,133.424 C493.872,133.067 494.361,132.771 494.604,132.336 C495.301,131.088 494.750,129.731 494.948,128.338 ZM497.516,122.682 C495.857,125.028 495.831,127.693 496.081,130.519 C496.414,130.024 496.711,129.615 496.972,129.184 C497.177,128.845 497.481,128.483 497.492,128.124 C497.545,126.301 497.516,124.475 497.516,122.682 ZM499.589,139.647 C500.221,139.680 500.829,139.712 501.429,139.744 C501.429,138.110 501.429,136.590 501.429,135.074 C500.794,135.074 500.211,135.074 499.589,135.074 C499.589,136.616 499.589,138.076 499.589,139.647 ZM501.446,132.242 C501.446,131.188 501.446,130.187 501.446,129.154 C500.829,129.154 500.245,129.154 499.606,129.154 C499.606,130.220 499.606,131.237 499.606,132.242 C500.253,132.242 500.853,132.242 501.446,132.242 ZM499.584,119.669 C499.584,120.301 499.584,120.887 499.584,121.703 C500.038,121.537 500.530,121.510 500.687,121.265 C500.974,120.817 501.064,120.240 501.251,119.669 C500.648,119.669 500.124,119.669 499.584,119.669 ZM501.450,124.160 C500.572,124.713 500.545,125.605 500.131,126.340 C500.620,126.340 501.021,126.340 501.450,126.340 C501.450,125.650 501.450,124.996 501.450,124.160 ZM503.558,128.571 C503.558,132.270 503.558,135.969 503.558,139.699 C503.903,139.699 504.214,139.699 504.624,139.699 C504.624,137.731 504.531,135.807 504.650,133.897 C504.768,131.993 503.980,130.331 503.558,128.571 ZM505.614,134.786 C505.614,136.451 505.614,138.134 505.614,139.820 C506.072,139.820 506.489,139.820 506.864,139.820 C507.226,137.920 506.846,136.242 505.614,134.786 ZM507.909,138.362 C507.909,138.893 507.909,139.327 507.909,139.813 C508.426,139.813 508.881,139.813 509.116,139.813 C508.779,139.408 508.368,138.914 507.909,138.362 ZM505.267,107.778 C503.895,107.582 502.705,107.989 501.625,108.892 C501.695,109.012 501.792,109.176 501.905,109.369 C500.959,109.327 500.042,109.411 499.189,109.214 C498.344,109.018 497.563,108.539 496.598,108.116 C497.212,108.018 497.727,107.937 498.476,107.818 C497.769,107.393 497.247,106.935 496.643,106.745 C495.075,106.253 494.086,105.210 493.530,103.915 C494.943,104.628 496.509,105.355 498.006,106.205 C498.602,106.543 499.122,107.096 499.539,107.654 C500.071,108.366 500.520,108.488 501.155,107.912 C501.924,107.214 502.769,106.728 503.875,106.816 C505.570,106.951 507.212,106.656 508.808,106.039 C507.801,106.996 506.824,108.001 505.267,107.778 ZM488.069,122.612 C486.537,122.470 485.077,122.393 483.830,123.535 C483.615,123.731 483.261,123.770 482.976,123.892 C482.553,124.073 482.112,124.226 481.717,124.458 C481.191,124.768 480.668,124.604 480.256,123.863 C480.526,123.723 480.750,123.572 480.997,123.486 C481.822,123.196 481.595,122.538 481.096,122.152 C480.386,121.602 479.629,121.089 479.022,120.437 C478.297,119.658 477.455,119.078 476.583,118.503 C475.900,118.051 475.482,117.398 475.526,116.436 C476.231,116.879 476.857,117.333 477.536,117.682 C478.187,118.017 478.875,118.313 479.579,118.501 C480.957,118.869 481.901,119.705 482.518,120.965 C482.816,121.576 483.279,121.799 483.971,121.859 C485.081,121.954 486.131,121.724 487.211,121.598 C487.865,121.521 488.563,121.801 489.238,121.942 C489.760,122.051 490.275,122.192 490.817,122.455 C489.900,122.516 488.973,122.695 488.069,122.612 ZM453.696,108.998 C453.228,109.129 452.689,109.058 452.192,108.998 C452.025,108.977 451.889,108.704 451.739,108.547 C451.878,108.432 452.017,108.218 452.155,108.220 C452.828,108.228 452.837,107.972 452.594,107.433 C452.301,106.785 452.127,106.082 451.861,105.419 C451.723,105.072 451.439,104.779 451.329,104.427 C451.190,103.979 451.162,103.497 451.086,103.029 C451.141,103.047 451.195,103.065 451.250,103.082 C451.924,103.861 452.641,104.607 453.253,105.432 C453.569,105.857 453.810,106.406 453.887,106.929 C454.002,107.717 454.426,108.397 455.235,108.455 C456.266,108.529 457.056,108.993 457.777,109.673 C457.910,109.799 458.099,109.865 458.219,110.091 C457.733,109.934 457.226,109.826 456.766,109.612 C455.787,109.156 454.848,108.677 453.696,108.998 Z" class="cls-8"/>
    <path d="M233.334,140.888 C235.122,140.984 236.939,140.824 238.699,141.079 C241.943,141.549 244.423,140.007 246.812,138.233 C249.792,136.019 251.857,133.016 253.610,129.774 C255.129,126.964 256.328,124.021 257.279,120.974 C257.424,120.510 257.433,120.003 257.521,119.519 C257.559,119.306 257.576,119.040 257.709,118.902 C258.686,117.889 258.479,117.986 259.295,118.814 C259.799,119.325 261.232,119.285 261.773,118.802 C262.035,118.568 262.550,118.200 262.650,118.279 C263.064,118.607 263.582,118.895 263.540,119.617 C263.475,120.761 263.419,121.922 263.545,123.055 C263.788,125.245 264.098,127.432 264.496,129.599 C264.939,132.008 265.673,134.341 266.769,136.541 C267.792,138.593 269.178,140.359 271.010,141.738 C271.264,141.928 271.666,141.918 272.000,142.001 C272.000,142.965 272.000,143.929 272.000,144.893 C269.203,144.893 266.406,144.893 263.533,144.893 C263.533,146.963 263.533,154.977 263.533,157.037 C262.829,157.037 262.201,157.037 261.497,157.037 C261.497,155.005 261.497,146.991 261.497,144.927 C260.839,144.927 260.255,144.927 259.594,144.927 C259.594,146.937 259.594,154.951 259.594,157.024 C258.875,157.024 258.231,157.024 257.534,157.024 C257.534,154.997 257.534,147.000 257.534,144.889 C257.221,144.889 256.959,144.888 256.696,144.889 M257.503,132.834 C257.149,133.312 256.940,133.689 256.644,133.973 C256.128,134.468 255.975,135.038 255.994,135.740 C256.034,137.229 256.006,138.720 256.006,140.210 C256.006,140.659 256.006,141.108 256.006,141.537 C256.566,141.537 257.029,141.537 257.503,141.537 C257.503,138.664 257.503,135.846 257.503,132.834 ZM264.624,141.699 C264.624,139.731 264.531,137.807 264.650,135.897 C264.768,133.993 263.980,132.331 263.558,130.571 C263.558,134.270 263.558,137.969 263.558,141.699 C263.903,141.699 264.214,141.699 264.624,141.699 ZM259.589,137.074 C259.589,138.616 259.589,140.076 259.589,141.647 C260.221,141.680 260.829,141.712 261.429,141.744 C261.429,140.110 261.429,138.590 261.429,137.074 C260.794,137.074 260.211,137.074 259.589,137.074 ZM256.081,132.519 C256.414,132.024 256.711,131.615 256.972,131.184 C257.177,130.845 257.481,130.483 257.492,130.124 C257.545,128.301 257.516,126.475 257.516,124.682 C255.856,127.027 255.831,129.693 256.081,132.519 ZM254.905,136.191 C254.843,136.145 254.781,136.099 254.719,136.052 C254.475,136.348 254.239,136.652 253.983,136.937 C253.809,137.131 253.449,137.293 253.442,137.479 C253.394,138.795 253.417,140.114 253.417,141.482 C253.972,141.482 254.431,141.482 254.905,141.482 C254.905,139.712 254.905,137.952 254.905,136.191 ZM259.606,131.154 C259.606,132.221 259.606,133.237 259.606,134.242 C260.253,134.242 260.853,134.242 261.446,134.242 C261.446,133.188 261.446,132.187 261.446,131.154 C260.829,131.154 260.245,131.154 259.606,131.154 ZM265.614,136.786 C265.614,138.451 265.614,140.134 265.614,141.820 C266.072,141.820 266.489,141.820 266.864,141.820 C267.226,139.920 266.846,138.242 265.614,136.786 ZM253.497,135.424 C253.872,135.067 254.361,134.771 254.604,134.336 C255.301,133.088 254.750,131.731 254.948,130.338 C253.649,131.900 253.041,133.527 253.497,135.424 ZM252.444,138.358 C250.955,138.946 250.533,139.809 250.905,141.402 C251.416,141.402 251.923,141.402 252.444,141.402 C252.444,140.371 252.444,139.393 252.444,138.358 ZM252.395,134.238 C251.703,135.390 250.374,136.097 250.882,137.640 C252.492,136.737 252.631,136.442 252.395,134.238 ZM259.584,123.703 C260.038,123.537 260.530,123.510 260.687,123.265 C260.974,122.817 261.064,122.239 261.251,121.669 C260.648,121.669 260.124,121.669 259.584,121.669 C259.584,122.302 259.584,122.887 259.584,123.703 ZM260.131,128.339 C260.620,128.339 261.021,128.339 261.450,128.339 C261.450,127.650 261.450,126.996 261.450,126.160 C260.572,126.713 260.545,127.605 260.131,128.339 ZM248.150,139.345 C249.756,138.787 249.981,138.507 249.768,137.317 C249.248,138.018 248.405,138.381 248.150,139.345 ZM248.152,141.272 C248.794,141.316 249.301,141.351 249.802,141.385 C249.802,140.961 249.802,140.527 249.802,139.954 C249.297,140.545 248.468,140.479 248.152,141.272 ZM267.909,141.813 C268.426,141.813 268.881,141.813 269.116,141.813 C268.779,141.408 268.368,140.914 267.909,140.362 C267.909,140.893 267.909,141.327 267.909,141.813 Z" class="cls-8"/>
    <path d="M1021.719,152.817 L905.999,156.006 L907.302,133.075 L907.202,129.639 C907.202,129.639 907.026,129.426 906.891,129.121 C920.881,124.899 941.796,122.104 965.934,121.524 C971.867,121.387 977.991,121.369 984.262,121.508 C997.303,121.798 1009.714,122.695 1021.016,124.066 C1021.002,124.112 1020.998,124.154 1020.976,124.205 C1020.976,124.205 1021.283,125.608 1022.435,131.899 C1023.584,138.187 1022.786,146.177 1021.719,152.817 ZM936.443,126.040 C934.829,125.918 933.413,127.741 933.277,130.111 L932.891,137.111 C932.882,137.174 932.887,137.236 932.882,137.296 L938.765,137.130 L939.132,130.544 C939.265,128.172 938.058,126.155 936.443,126.040 ZM947.080,130.173 C947.016,127.896 945.651,126.097 944.030,126.144 C942.416,126.189 941.150,128.059 941.214,130.337 L941.400,137.044 C941.404,137.051 941.404,137.057 941.404,137.057 L947.263,136.893 C947.263,136.893 947.270,136.889 947.263,136.882 L947.080,130.173 ZM956.047,129.387 C955.972,126.727 954.599,124.603 952.980,124.652 C951.361,124.698 950.109,126.890 950.177,129.549 L950.385,136.807 L956.244,136.645 L956.047,129.387 ZM965.022,128.983 C964.943,126.321 963.577,124.196 961.955,124.241 C960.334,124.288 959.081,126.482 959.159,129.145 L959.366,136.560 L965.229,136.398 L965.022,128.983 ZM973.776,129.512 C973.696,126.851 972.328,124.727 970.707,124.773 C969.088,124.816 967.839,127.012 967.914,129.671 L968.099,136.319 L973.956,136.155 L973.776,129.512 ZM983.016,129.734 C982.952,127.324 981.579,125.400 979.965,125.445 C978.346,125.490 977.083,127.485 977.155,129.899 L977.327,136.056 L983.192,135.897 L983.016,129.734 ZM991.871,129.475 C991.798,126.813 990.423,124.695 988.808,124.740 C987.187,124.782 985.936,126.975 986.009,129.635 L986.182,135.813 L992.041,135.650 L991.871,129.475 ZM1000.217,128.931 C1000.148,126.274 998.774,124.150 997.154,124.194 C995.536,124.234 994.285,126.437 994.359,129.090 L994.545,135.579 L1000.403,135.415 L1000.217,128.931 ZM1006.723,129.305 C1006.480,126.774 1005.264,124.855 1004.000,125.023 C1002.740,125.192 1001.907,127.376 1002.154,129.908 L1002.676,135.353 L1007.291,135.223 L1006.723,129.305 ZM1012.485,129.304 C1012.247,126.816 1011.224,124.914 1010.205,125.046 C1009.180,125.184 1008.547,127.306 1008.779,129.791 L1009.295,135.167 L1013.036,135.069 L1012.485,129.304 ZM1017.272,129.424 C1016.981,126.949 1015.919,125.077 1014.895,125.247 C1013.879,125.416 1013.287,127.565 1013.579,130.041 L1014.169,135.031 L1017.924,134.926 L1017.272,129.424 ZM984.588,120.699 C978.325,120.559 972.210,120.576 966.284,120.715 C942.180,121.297 921.293,124.104 907.322,128.344 C907.105,127.861 906.982,127.152 907.782,126.681 L909.011,118.610 C909.011,118.610 908.023,116.469 909.000,114.633 C909.962,114.026 911.049,113.442 912.194,112.870 C912.284,112.798 912.347,112.719 912.448,112.651 L913.053,107.614 C913.053,107.614 911.752,104.176 914.158,100.951 L914.724,95.862 C914.724,95.862 908.950,84.011 940.510,70.909 L942.910,73.428 L949.175,71.699 L951.162,71.330 L951.281,69.568 L951.845,69.039 L951.720,67.590 C951.720,67.590 957.990,66.208 966.708,65.458 C966.724,65.454 966.737,65.456 966.757,65.454 C976.926,64.590 990.418,64.597 1001.222,68.693 L1000.768,70.573 L1001.641,71.891 C1001.641,71.891 1005.729,81.408 1006.223,84.193 L1007.986,84.869 L1008.295,87.034 L1009.811,87.614 L1009.199,89.493 L1009.557,90.629 L1009.086,91.461 L1012.108,101.528 L1015.540,102.470 L1015.833,103.911 L1017.680,104.689 C1017.680,104.689 1017.415,105.015 1017.179,105.493 C1006.591,103.625 994.532,102.434 981.708,102.149 C977.012,102.042 972.411,102.071 967.943,102.213 C951.343,102.726 936.593,104.848 925.479,108.070 C936.302,105.191 950.202,103.303 965.710,102.822 C970.176,102.681 974.776,102.652 979.470,102.758 C992.289,103.044 1004.344,104.238 1014.928,106.109 C1014.737,106.503 1014.564,106.991 1014.578,107.506 L1014.523,108.649 C1014.523,108.649 1016.091,117.116 1017.495,119.563 L1020.325,119.795 L1020.709,121.867 C1020.709,121.867 1021.616,122.223 1021.292,123.268 C1010.006,121.890 997.611,120.990 984.588,120.699 ZM919.015,90.253 L918.720,93.215 L919.499,92.670 L919.749,89.769 L919.015,90.253 ZM960.565,74.692 L958.324,74.754 L958.419,78.273 L960.662,78.213 L960.565,74.692 ZM976.004,73.961 L973.768,74.020 L973.866,77.535 L976.108,77.476 L976.004,73.961 ZM1003.861,99.363 C1005.387,99.650 1006.899,99.973 1008.376,100.336 L1008.184,93.439 C1008.140,91.822 1007.101,90.539 1005.860,90.575 C1004.621,90.612 1003.655,91.945 1003.696,93.569 L1003.861,99.363 ZM997.342,98.352 C998.906,98.544 1000.450,98.765 1001.980,99.025 L1001.787,92.159 C1001.748,90.573 1000.675,89.319 999.404,89.352 C998.128,89.390 997.133,90.706 997.179,92.285 L997.342,98.352 ZM989.843,97.654 C991.435,97.760 993.017,97.887 994.593,98.044 L994.402,91.147 C994.354,89.552 993.259,88.284 991.953,88.323 C990.648,88.362 989.623,89.681 989.665,91.279 L989.843,97.654 ZM989.515,78.344 L991.759,78.281 L991.658,74.762 L989.417,74.825 L989.515,78.344 ZM981.836,96.774 C981.846,96.979 981.863,97.183 981.901,97.366 C983.519,97.389 985.135,97.432 986.751,97.496 C986.805,97.219 986.832,96.932 986.824,96.635 L986.679,91.477 C986.630,89.731 985.477,88.346 984.100,88.386 C982.724,88.423 981.643,89.867 981.692,91.614 L981.836,96.774 ZM973.132,97.390 C973.130,97.424 973.134,97.461 973.134,97.488 C974.860,97.424 976.604,97.384 978.361,97.368 C978.360,97.321 978.361,97.285 978.362,97.242 L978.185,90.877 C978.136,89.077 976.922,87.648 975.474,87.690 C974.031,87.734 972.900,89.227 972.953,91.024 L973.132,97.390 ZM965.131,96.783 C965.145,97.191 965.212,97.581 965.335,97.936 C966.083,97.878 966.852,97.839 967.610,97.789 C967.669,97.783 967.735,97.780 967.801,97.777 C968.533,97.730 969.265,97.675 970.014,97.630 C970.090,97.322 970.120,96.985 970.113,96.638 L969.970,91.478 C969.921,89.776 968.825,88.427 967.497,88.395 C967.461,88.395 967.427,88.382 967.391,88.380 C967.375,88.383 967.361,88.386 967.342,88.389 C965.989,88.460 964.937,89.891 964.991,91.612 L965.131,96.783 ZM957.283,96.995 C957.299,97.599 957.444,98.156 957.686,98.628 C959.115,98.474 960.575,98.330 962.064,98.199 C962.202,97.792 962.278,97.335 962.267,96.860 L962.120,91.698 C962.076,89.950 960.920,88.560 959.541,88.604 C958.161,88.638 957.087,90.090 957.140,91.835 L957.283,96.995 ZM949.323,97.993 C949.342,98.587 949.488,99.139 949.727,99.605 C951.157,99.411 952.635,99.216 954.167,99.030 C954.269,98.665 954.317,98.269 954.306,97.856 L954.165,92.697 C954.112,90.944 952.960,89.564 951.583,89.606 C950.211,89.639 949.129,91.084 949.180,92.836 L949.323,97.993 ZM946.103,77.898 L943.953,78.166 L944.053,81.681 L946.201,81.414 L946.103,77.898 ZM942.387,99.585 C942.398,99.984 942.469,100.358 942.581,100.701 C944.059,100.457 945.658,100.200 947.354,99.949 C947.363,99.788 947.373,99.617 947.370,99.445 L947.223,94.288 C947.176,92.542 946.020,91.157 944.648,91.192 C943.272,91.232 942.196,92.680 942.244,94.427 L942.387,99.585 ZM935.850,101.920 C937.152,101.668 938.678,101.379 940.412,101.075 C940.441,100.897 940.468,100.719 940.471,100.528 L940.698,95.377 C940.776,93.631 939.721,92.125 938.344,92.016 C936.973,91.906 935.790,93.226 935.718,94.965 L935.488,100.117 C935.467,100.771 935.598,101.400 935.850,101.920 ZM934.200,84.647 L934.514,81.123 L932.874,81.840 L932.631,85.165 L934.200,84.647 ZM925.490,85.514 L924.550,86.056 L924.461,88.964 L925.328,88.677 L925.490,85.514 ZM939.948,106.813 C938.332,106.702 936.969,108.210 936.894,110.159 L936.686,115.941 C936.644,117.008 937.000,117.982 937.592,118.682 C938.962,118.579 940.405,118.472 941.909,118.366 C942.280,117.808 942.508,117.104 942.535,116.335 L942.744,110.556 C942.821,108.590 941.565,106.919 939.948,106.813 ZM950.282,109.840 C950.223,107.823 948.865,106.235 947.249,106.276 C945.632,106.321 944.364,107.988 944.423,110.000 L944.591,115.936 C944.613,116.777 944.859,117.533 945.257,118.135 C946.783,118.033 948.366,117.933 949.994,117.838 C950.293,117.251 950.464,116.534 950.443,115.779 L950.282,109.840 ZM958.486,109.140 C958.430,107.128 957.072,105.532 955.456,105.581 C953.843,105.622 952.579,107.292 952.631,109.307 L952.796,115.241 C952.823,116.174 953.123,117.005 953.604,117.637 C955.059,117.558 956.542,117.480 958.053,117.414 C958.446,116.770 958.673,115.956 958.647,115.080 L958.486,109.140 ZM966.958,108.904 C966.928,107.782 966.477,106.811 965.818,106.160 C965.737,106.079 965.669,105.989 965.586,105.922 C965.103,105.542 964.535,105.326 963.928,105.343 C962.311,105.390 961.044,107.062 961.101,109.066 L961.267,115.002 C961.286,115.856 961.546,116.637 961.956,117.240 C963.252,117.185 964.569,117.141 965.891,117.098 C965.983,117.095 966.072,117.091 966.168,117.086 C966.303,117.082 966.439,117.078 966.578,117.073 C966.941,116.449 967.148,115.678 967.125,114.839 L966.958,108.904 ZM975.687,109.126 C975.627,107.111 974.276,105.523 972.665,105.563 C971.047,105.613 969.777,107.278 969.839,109.288 L969.997,115.230 C970.019,115.855 970.166,116.447 970.403,116.960 C972.099,116.913 973.814,116.872 975.533,116.841 C975.755,116.314 975.875,115.704 975.855,115.064 L975.687,109.126 ZM984.296,109.195 C984.238,107.185 982.883,105.591 981.258,105.637 C979.653,105.679 978.385,107.344 978.437,109.361 L978.605,115.299 C978.616,115.838 978.726,116.344 978.911,116.800 C980.668,116.785 982.431,116.778 984.187,116.790 C984.373,116.290 984.472,115.728 984.456,115.134 L984.296,109.195 ZM993.026,109.419 C992.967,107.410 991.641,105.811 990.058,105.857 C988.474,105.899 987.240,107.568 987.294,109.582 L987.461,115.517 C987.472,115.980 987.552,116.412 987.685,116.810 C989.452,116.829 991.211,116.866 992.964,116.914 C993.121,116.443 993.206,115.909 993.192,115.357 L993.026,109.419 ZM1001.016,109.818 C1000.963,107.807 999.631,106.211 998.049,106.259 C996.466,106.299 995.229,107.968 995.282,109.979 L995.448,115.920 C995.459,116.297 995.514,116.658 995.612,116.995 C997.415,117.065 999.213,117.141 1000.973,117.240 C1001.117,116.787 1001.194,116.279 1001.177,115.762 L1001.016,109.818 ZM1007.699,116.147 L1007.216,110.228 C1007.050,108.224 1005.809,106.727 1004.436,106.882 C1003.071,107.036 1002.089,108.781 1002.256,110.786 L1002.745,116.703 C1002.761,116.926 1002.791,117.145 1002.840,117.346 C1004.451,117.451 1006.040,117.566 1007.598,117.700 C1007.708,117.223 1007.748,116.692 1007.699,116.147 ZM1012.861,117.256 L1012.409,111.678 C1012.250,109.797 1011.289,108.365 1010.263,108.481 C1009.242,108.595 1008.525,110.221 1008.682,112.102 L1009.137,117.676 C1009.144,117.730 1009.147,117.791 1009.159,117.843 C1010.415,117.962 1011.646,118.091 1012.867,118.235 C1012.886,117.924 1012.890,117.590 1012.861,117.256 Z" class="cls-8"/>
    <path d="M888.694,112.130 L893.005,112.154 L892.943,118.004 L880.649,117.938 L865.983,117.858 L866.045,112.006 L870.361,112.028 C869.294,106.685 867.476,94.519 869.226,79.812 C871.098,64.148 876.829,53.789 879.950,53.033 C880.001,53.020 880.053,53.003 880.102,52.996 L880.123,52.985 C880.123,52.985 880.146,52.990 880.165,52.994 C880.176,52.990 880.207,52.987 880.207,52.987 L880.206,52.994 C883.278,53.476 888.944,63.987 890.507,79.926 C891.950,94.645 889.869,106.794 888.692,112.123 L888.694,112.130 ZM887.135,111.147 C887.614,108.909 888.205,105.645 888.640,101.624 C888.627,101.580 888.614,101.532 888.601,101.487 C888.226,100.137 887.702,98.472 887.059,96.777 C887.053,96.790 887.047,96.805 887.041,96.819 C886.017,99.242 884.905,101.920 883.874,104.504 C883.872,104.510 883.870,104.516 883.867,104.524 C885.331,107.330 886.459,109.682 887.076,111.019 C887.095,111.060 887.118,111.110 887.135,111.147 ZM872.863,84.153 C872.861,84.157 872.860,84.160 872.858,84.164 C873.575,85.858 874.476,87.690 875.503,89.636 C875.505,89.632 875.506,89.630 875.508,89.626 C875.509,89.621 875.511,89.618 875.512,89.615 C876.625,86.777 877.788,83.891 878.940,81.304 C877.843,79.381 876.842,77.667 876.091,76.412 C876.090,76.415 876.089,76.418 876.087,76.420 L876.104,76.449 C874.996,78.758 873.868,81.346 872.863,84.153 ZM876.236,90.984 C876.234,90.988 876.232,90.991 876.230,90.996 C877.118,92.618 878.072,94.312 879.088,96.034 C879.088,96.034 879.088,96.034 879.088,96.033 C879.508,94.972 879.942,93.925 880.379,92.888 C881.112,91.152 881.859,89.460 882.588,87.867 C882.595,87.854 882.601,87.838 882.608,87.823 C881.852,86.446 881.059,85.030 880.280,83.656 C880.095,83.330 879.911,83.005 879.729,82.686 C878.575,85.299 877.324,88.165 876.236,90.984 ZM880.411,95.883 C880.219,96.357 880.026,96.832 879.839,97.310 C879.838,97.311 879.837,97.312 879.837,97.314 C880.006,97.601 880.168,97.884 880.336,98.165 C880.371,98.224 880.403,98.282 880.438,98.339 C881.423,99.996 882.330,101.638 883.160,103.184 C883.161,103.180 883.162,103.176 883.164,103.173 C884.244,100.463 885.398,97.720 886.428,95.306 C886.432,95.295 886.437,95.283 886.442,95.274 C886.231,94.782 886.027,94.306 885.795,93.831 C885.149,92.532 884.273,90.882 883.313,89.102 C883.310,89.109 883.306,89.117 883.303,89.125 C882.339,91.266 881.353,93.556 880.411,95.883 ZM884.233,112.098 C884.230,112.093 884.226,112.085 884.224,112.080 C883.913,111.427 883.260,110.110 882.456,108.550 C882.431,108.501 882.407,108.454 882.381,108.405 C881.965,109.523 881.566,110.627 881.249,111.577 C881.193,111.746 881.135,111.917 881.082,112.080 L884.233,112.098 ZM876.485,112.052 L879.865,112.072 C879.918,111.903 879.981,111.720 880.039,111.543 C880.201,111.050 880.374,110.539 880.563,109.999 C880.888,109.070 881.259,108.041 881.653,106.999 C881.284,106.301 880.900,105.585 880.508,104.878 C879.841,103.671 879.157,102.493 878.514,101.486 C878.470,101.411 878.420,101.311 878.365,101.239 C878.358,101.259 878.351,101.281 878.344,101.300 C877.160,104.688 876.196,107.978 875.700,110.827 C875.699,110.832 875.698,110.839 875.696,110.846 C875.957,111.252 876.228,111.677 876.485,112.052 ZM873.905,107.708 C874.157,108.266 874.485,108.824 874.809,109.386 C874.814,109.360 874.820,109.332 874.827,109.305 C875.432,106.445 876.397,103.279 877.571,100.037 C877.579,100.014 877.587,99.991 877.595,99.967 C876.658,98.389 875.686,96.609 874.798,94.909 C874.793,94.922 874.789,94.934 874.784,94.947 C873.692,98.077 872.813,101.111 872.300,103.765 C872.298,103.774 872.296,103.786 872.294,103.795 C872.907,105.354 873.483,106.791 873.905,107.708 ZM870.252,93.242 C870.273,95.192 870.321,97.076 870.430,98.818 C870.767,99.731 871.147,100.760 871.536,101.794 C871.536,101.791 871.537,101.786 871.539,101.784 C872.137,99.224 873.020,96.410 874.036,93.556 C874.044,93.536 874.050,93.516 874.057,93.496 C872.959,91.362 872.044,89.524 871.633,88.713 C871.576,88.589 871.540,88.480 871.478,88.369 C871.476,88.377 871.475,88.384 871.473,88.391 C871.032,89.936 870.630,91.540 870.266,93.180 C870.261,93.201 870.256,93.221 870.252,93.242 ZM870.437,85.657 C870.379,86.527 870.371,87.339 870.341,88.183 C870.343,88.174 870.346,88.165 870.348,88.157 C870.495,87.677 870.641,87.200 870.794,86.725 C870.795,86.724 870.796,86.721 870.796,86.719 C870.670,86.354 870.529,85.997 870.437,85.657 ZM873.423,67.801 C872.418,71.201 871.629,74.919 871.107,78.750 C871.187,79.107 871.278,79.492 871.381,79.921 C871.572,80.707 871.859,81.562 872.187,82.446 C872.200,82.480 872.212,82.515 872.225,82.548 C872.226,82.547 872.226,82.546 872.227,82.545 C873.231,79.874 874.312,77.390 875.391,75.192 L875.395,75.199 C875.393,75.187 875.391,75.175 875.393,75.172 C874.181,72.772 873.654,69.729 873.423,67.801 ZM880.247,64.016 C880.184,63.907 880.123,63.795 880.064,63.683 C879.602,62.801 879.286,61.893 879.286,61.893 L877.650,64.580 L876.754,62.170 L875.049,65.087 C875.049,65.087 875.845,67.523 877.473,71.248 C877.475,71.242 877.479,71.238 877.482,71.231 L877.486,71.240 C878.414,69.577 879.331,68.081 880.098,66.888 C880.112,66.867 880.128,66.841 880.141,66.819 C880.467,66.314 880.752,65.855 881.032,65.443 C880.670,64.773 880.401,64.282 880.247,64.016 ZM881.660,66.603 C881.209,67.278 880.706,68.062 880.164,68.944 C880.152,68.963 880.140,68.985 880.128,69.003 C879.501,70.027 878.765,71.274 878.060,72.560 L878.057,72.554 C878.057,72.554 878.056,72.555 878.056,72.556 C878.672,73.904 879.393,75.389 880.208,76.954 C880.347,77.223 880.484,77.488 880.629,77.761 C880.630,77.760 880.630,77.759 880.631,77.758 L880.623,77.742 C881.964,74.869 883.191,72.373 883.965,70.837 C883.023,69.126 882.268,67.710 881.660,66.603 ZM886.110,74.786 C885.589,73.821 885.107,72.941 884.649,72.098 C884.648,72.101 884.646,72.105 884.645,72.108 L884.647,72.113 C883.820,73.785 882.617,76.259 881.333,79.053 C881.376,79.138 881.419,79.211 881.464,79.297 C882.480,81.125 883.386,82.826 884.208,84.397 C884.210,84.392 884.212,84.388 884.214,84.383 L884.213,84.382 C885.568,81.535 886.782,79.087 887.518,77.679 C887.103,76.733 886.653,75.761 886.110,74.786 ZM888.883,81.328 C888.668,80.647 888.404,79.891 888.106,79.122 C887.307,80.699 886.134,83.071 884.889,85.724 L884.880,85.707 C884.880,85.708 884.880,85.708 884.879,85.709 C886.093,88.123 887.070,90.228 887.828,92.039 C887.828,92.039 887.828,92.039 887.828,92.038 L887.822,92.023 C888.389,90.703 888.889,89.615 889.212,88.895 C889.217,88.883 889.224,88.867 889.230,88.855 C889.197,86.439 889.109,83.946 888.883,81.328 ZM889.139,95.370 C889.199,94.192 889.231,92.952 889.254,91.691 C889.253,91.693 889.252,91.696 889.251,91.698 L889.251,91.699 C889.014,92.221 888.733,92.926 888.463,93.542 L888.456,93.525 C888.454,93.529 888.453,93.533 888.451,93.536 C888.700,94.189 888.942,94.804 889.139,95.370 Z" class="cls-1"/>
    <path d="M350.056,135.583 L402.000,143.000 L262.944,144.417 L263.051,136.418 L350.056,135.583 Z" class="cls-8"/>
  </g>
</svg>
